<svg width="1292" height="588" viewBox="0 0 1292 588" fill="none" xmlns="http://www.w3.org/2000/svg">
<rect x="5" y="5" width="1282" height="556" rx="75" fill="#F7F7F7" stroke="#4B4B4B" stroke-width="10"/>
<path d="M49 262C49 228.863 75.8629 202 109 202H288V519H109C75.8629 519 49 492.137 49 459V262Z" fill="#1D741B"/>
<path d="M288 202H527V519H288V202Z" fill="#96C02A"/>
<path d="M527 202H766V519H527V202Z" fill="#FAE028"/>
<path d="M766 202H1005V519H766V202Z" fill="#E9961E"/>
<path d="M128.267 433H104.972L157.315 287.545H182.67L235.014 433H211.719L170.597 313.966H169.46L128.267 433ZM132.173 376.04H207.741V394.506H132.173V376.04Z" fill="#94B689"/>
<path d="M354.98 433V287.545H408.247C418.569 287.545 427.116 289.25 433.886 292.659C440.657 296.021 445.723 300.59 449.085 306.366C452.447 312.096 454.128 318.559 454.128 325.756C454.128 331.816 453.015 336.93 450.79 341.097C448.564 345.216 445.581 348.53 441.841 351.04C438.148 353.502 434.076 355.301 429.625 356.438V357.858C434.455 358.095 439.166 359.657 443.759 362.545C448.399 365.386 452.234 369.435 455.264 374.69C458.295 379.946 459.81 386.338 459.81 393.866C459.81 401.3 458.058 407.976 454.554 413.895C451.098 419.766 445.747 424.43 438.503 427.886C431.259 431.295 422.002 433 410.733 433H354.98ZM376.926 414.179H408.602C419.114 414.179 426.642 412.143 431.188 408.071C435.733 403.999 438.006 398.909 438.006 392.801C438.006 388.208 436.846 383.994 434.526 380.159C432.205 376.324 428.891 373.27 424.582 370.997C420.321 368.724 415.255 367.588 409.384 367.588H376.926V414.179ZM376.926 350.472H406.33C411.254 350.472 415.681 349.525 419.611 347.631C423.588 345.737 426.737 343.085 429.057 339.676C431.424 336.22 432.608 332.148 432.608 327.46C432.608 321.447 430.501 316.404 426.287 312.332C422.073 308.26 415.61 306.224 406.898 306.224H376.926V350.472Z" fill="#C4D186"/>
<path d="M717.79 334.847H695.631C694.778 330.112 693.192 325.945 690.872 322.347C688.552 318.748 685.711 315.694 682.349 313.185C678.988 310.675 675.223 308.781 671.057 307.503C666.938 306.224 662.558 305.585 657.918 305.585C649.537 305.585 642.032 307.692 635.403 311.906C628.822 316.12 623.614 322.299 619.778 330.443C615.991 338.587 614.097 348.53 614.097 360.273C614.097 372.11 615.991 382.1 619.778 390.244C623.614 398.388 628.846 404.544 635.474 408.71C642.103 412.877 649.561 414.96 657.847 414.96C662.439 414.96 666.795 414.345 670.915 413.114C675.081 411.835 678.846 409.965 682.207 407.503C685.569 405.041 688.41 402.034 690.73 398.483C693.098 394.884 694.731 390.765 695.631 386.125L717.79 386.196C716.606 393.346 714.31 399.927 710.901 405.94C707.539 411.906 703.206 417.067 697.903 421.423C692.648 425.732 686.634 429.07 679.864 431.438C673.093 433.805 665.706 434.989 657.705 434.989C645.11 434.989 633.888 432.006 624.04 426.04C614.191 420.027 606.426 411.433 600.744 400.259C595.11 389.084 592.293 375.756 592.293 360.273C592.293 344.742 595.134 331.414 600.815 320.287C606.497 309.113 614.262 300.543 624.111 294.577C633.959 288.563 645.157 285.557 657.705 285.557C665.422 285.557 672.619 286.67 679.295 288.895C686.019 291.073 692.056 294.293 697.406 298.554C702.757 302.768 707.184 307.929 710.688 314.037C714.191 320.098 716.559 327.034 717.79 334.847Z" fill="#FCF8BF"/>
<path d="M876.068 433H828.98V287.545H877.56C891.812 287.545 904.051 290.457 914.278 296.281C924.506 302.058 932.342 310.367 937.787 321.21C943.279 332.006 946.026 344.955 946.026 360.06C946.026 375.211 943.256 388.232 937.716 399.122C932.223 410.012 924.269 418.393 913.852 424.264C903.436 430.088 890.841 433 876.068 433ZM850.926 413.824H874.861C885.94 413.824 895.15 411.741 902.489 407.574C909.828 403.36 915.32 397.276 918.966 389.321C922.612 381.319 924.435 371.565 924.435 360.06C924.435 348.649 922.612 338.966 918.966 331.011C915.367 323.057 909.993 317.02 902.844 312.901C895.694 308.781 886.816 306.722 876.21 306.722H850.926V413.824Z" fill="#EBC579"/>
<path d="M155.25 138H137.75L98.125 78.125V138H80.625V50.625H98.125L137.75 110.625V50.625H155.25V138ZM189.794 50.75V104.75C189.794 110.667 191.336 115.208 194.419 118.375C197.502 121.458 201.836 123 207.419 123C213.086 123 217.461 121.458 220.544 118.375C223.627 115.208 225.169 110.667 225.169 104.75V50.75H242.794V104.625C242.794 112.042 241.169 118.333 237.919 123.5C234.752 128.583 230.461 132.417 225.044 135C219.711 137.583 213.752 138.875 207.169 138.875C200.669 138.875 194.752 137.583 189.419 135C184.169 132.417 180.002 128.583 176.919 123.5C173.836 118.333 172.294 112.042 172.294 104.625V50.75H189.794ZM319.077 50.75V64.875H295.827V138H278.327V64.875H255.077V50.75H319.077ZM376.846 138L357.596 104H349.346V138H331.846V50.75H364.596C371.346 50.75 377.096 51.9583 381.846 54.375C386.596 56.7083 390.137 59.9167 392.471 64C394.887 68 396.096 72.5 396.096 77.5C396.096 83.25 394.429 88.4583 391.096 93.125C387.762 97.7083 382.804 100.875 376.221 102.625L397.096 138H376.846ZM349.346 90.875H363.971C368.721 90.875 372.262 89.75 374.596 87.5C376.929 85.1667 378.096 81.9583 378.096 77.875C378.096 73.875 376.929 70.7917 374.596 68.625C372.262 66.375 368.721 65.25 363.971 65.25H349.346V90.875ZM429.424 50.75V138H411.924V50.75H429.424ZM499.964 86V100.75H446.964V86H499.964ZM549.715 138.875C543.632 138.875 538.132 137.833 533.215 135.75C528.382 133.667 524.548 130.667 521.715 126.75C518.882 122.833 517.423 118.208 517.34 112.875H536.09C536.34 116.458 537.59 119.292 539.84 121.375C542.173 123.458 545.34 124.5 549.34 124.5C553.423 124.5 556.632 123.542 558.965 121.625C561.298 119.625 562.465 117.042 562.465 113.875C562.465 111.292 561.673 109.167 560.09 107.5C558.507 105.833 556.507 104.542 554.09 103.625C551.757 102.625 548.507 101.542 544.34 100.375C538.673 98.7083 534.048 97.0833 530.465 95.5C526.965 93.8333 523.923 91.375 521.34 88.125C518.84 84.7917 517.59 80.375 517.59 74.875C517.59 69.7083 518.882 65.2083 521.465 61.375C524.048 57.5417 527.673 54.625 532.34 52.625C537.007 50.5417 542.34 49.5 548.34 49.5C557.34 49.5 564.632 51.7083 570.215 56.125C575.882 60.4583 579.007 66.5417 579.59 74.375H560.34C560.173 71.375 558.882 68.9167 556.465 67C554.132 65 551.007 64 547.09 64C543.673 64 540.923 64.875 538.84 66.625C536.84 68.375 535.84 70.9167 535.84 74.25C535.84 76.5833 536.59 78.5417 538.09 80.125C539.673 81.625 541.59 82.875 543.84 83.875C546.173 84.7917 549.423 85.875 553.59 87.125C559.257 88.7917 563.882 90.4583 567.465 92.125C571.048 93.7917 574.132 96.2917 576.715 99.625C579.298 102.958 580.59 107.333 580.59 112.75C580.59 117.417 579.382 121.75 576.965 125.75C574.548 129.75 571.007 132.958 566.34 135.375C561.673 137.708 556.132 138.875 549.715 138.875ZM591.512 94.25C591.512 85.6667 593.428 78 597.262 71.25C601.178 64.4167 606.47 59.125 613.137 55.375C619.887 51.5417 627.428 49.625 635.762 49.625C645.512 49.625 654.053 52.125 661.387 57.125C668.72 62.125 673.845 69.0417 676.762 77.875H656.637C654.637 73.7083 651.803 70.5833 648.137 68.5C644.553 66.4167 640.387 65.375 635.637 65.375C630.553 65.375 626.012 66.5833 622.012 69C618.095 71.3333 615.012 74.6667 612.762 79C610.595 83.3333 609.512 88.4167 609.512 94.25C609.512 100 610.595 105.083 612.762 109.5C615.012 113.833 618.095 117.208 622.012 119.625C626.012 121.958 630.553 123.125 635.637 123.125C640.387 123.125 644.553 122.083 648.137 120C651.803 117.833 654.637 114.667 656.637 110.5H676.762C673.845 119.417 668.72 126.375 661.387 131.375C654.137 136.292 645.595 138.75 635.762 138.75C627.428 138.75 619.887 136.875 613.137 133.125C606.47 129.292 601.178 124 597.262 117.25C593.428 110.5 591.512 102.833 591.512 94.25ZM732.209 138.875C724.042 138.875 716.542 136.958 709.709 133.125C702.876 129.292 697.459 124 693.459 117.25C689.459 110.417 687.459 102.708 687.459 94.125C687.459 85.625 689.459 78 693.459 71.25C697.459 64.4167 702.876 59.0833 709.709 55.25C716.542 51.4167 724.042 49.5 732.209 49.5C740.459 49.5 747.959 51.4167 754.709 55.25C761.542 59.0833 766.917 64.4167 770.834 71.25C774.834 78 776.834 85.625 776.834 94.125C776.834 102.708 774.834 110.417 770.834 117.25C766.917 124 761.542 129.292 754.709 133.125C747.876 136.958 740.376 138.875 732.209 138.875ZM732.209 123.25C737.459 123.25 742.084 122.083 746.084 119.75C750.084 117.333 753.209 113.917 755.459 109.5C757.709 105.083 758.834 99.9583 758.834 94.125C758.834 88.2917 757.709 83.2083 755.459 78.875C753.209 74.4583 750.084 71.0833 746.084 68.75C742.084 66.4167 737.459 65.25 732.209 65.25C726.959 65.25 722.292 66.4167 718.209 68.75C714.209 71.0833 711.084 74.4583 708.834 78.875C706.584 83.2083 705.459 88.2917 705.459 94.125C705.459 99.9583 706.584 105.083 708.834 109.5C711.084 113.917 714.209 117.333 718.209 119.75C722.292 122.083 726.959 123.25 732.209 123.25ZM834.854 138L815.604 104H807.354V138H789.854V50.75H822.604C829.354 50.75 835.104 51.9583 839.854 54.375C844.604 56.7083 848.145 59.9167 850.479 64C852.895 68 854.104 72.5 854.104 77.5C854.104 83.25 852.437 88.4583 849.104 93.125C845.77 97.7083 840.812 100.875 834.229 102.625L855.104 138H834.854ZM807.354 90.875H821.979C826.729 90.875 830.27 89.75 832.604 87.5C834.937 85.1667 836.104 81.9583 836.104 77.875C836.104 73.875 834.937 70.7917 832.604 68.625C830.27 66.375 826.729 65.25 821.979 65.25H807.354V90.875ZM887.432 64.875V86.75H916.807V100.625H887.432V123.75H920.557V138H869.932V50.625H920.557V64.875H887.432Z" fill="#707070"/>
<rect x="989" y="143" width="264" height="435" rx="132" fill="#D33014" stroke="white" stroke-width="20"/>
<path d="M1054.8 451V269.182H1177.32V300.876H1093.24V344.2H1171.01V375.893H1093.24V419.306H1177.67V451H1054.8Z" fill="white"/>
</svg>
